<?xml version="1.0" encoding="UTF-8" standalone="no"?>
<svg
   width="122.2375mm"
   height="71.17292mm"
   version="1.1"
   xml:space="preserve"
   style="clip-rule:evenodd;fill-rule:evenodd;stroke-linejoin:round;stroke-miterlimit:2"
   id="svg8208"
   sodipodi:docname="Nicla_Battery_Lasercut_dpi.svg"
   inkscape:version="1.2.1 (9c6d41e, 2022-07-14)"
   xmlns:inkscape="http://www.inkscape.org/namespaces/inkscape"
   xmlns:sodipodi="http://sodipodi.sourceforge.net/DTD/sodipodi-0.dtd"
   xmlns="http://www.w3.org/2000/svg"
   xmlns:svg="http://www.w3.org/2000/svg"><defs
   id="defs8212" /><sodipodi:namedview
   id="namedview8210"
   pagecolor="#ffffff"
   bordercolor="#666666"
   borderopacity="1.0"
   inkscape:showpageshadow="2"
   inkscape:pageopacity="0.0"
   inkscape:pagecheckerboard="0"
   inkscape:deskcolor="#d1d1d1"
   showgrid="false"
   inkscape:zoom="0.87732342"
   inkscape:cx="230.24576"
   inkscape:cy="134.5"
   inkscape:window-width="1512"
   inkscape:window-height="874"
   inkscape:window-x="0"
   inkscape:window-y="38"
   inkscape:window-maximized="1"
   inkscape:current-layer="svg8208"
   inkscape:document-units="mm" />
    <path
   d="m 52.913,115.654 c 0,7.092 5.758,12.85 12.851,12.85 h 102.803 c 7.092,0 12.85,-5.758 12.85,-12.85 V 12.85 C 181.417,5.758 175.659,0 168.567,0 H 65.764 C 58.671,0 52.913,5.758 52.913,12.85 Z m 115.276,-6.048 c 3.129,0 5.669,2.541 5.669,5.67 0,3.129 -2.54,5.669 -5.669,5.669 -3.129,0 -5.669,-2.54 -5.669,-5.669 0,-3.129 2.54,-5.67 5.669,-5.67 z m -102.047,0 c 3.129,0 5.669,2.541 5.669,5.67 0,3.129 -2.54,5.669 -5.669,5.669 -3.129,0 -5.67,-2.54 -5.67,-5.669 0,-3.129 2.541,-5.67 5.67,-5.67 z m 0,-102.047 c 3.129,0 5.669,2.54 5.669,5.669 0,3.129 -2.54,5.67 -5.669,5.67 -3.129,0 -5.67,-2.541 -5.67,-5.67 0,-3.129 2.541,-5.669 5.67,-5.669 z m 102.047,0 c 3.129,0 5.669,2.54 5.669,5.669 0,3.129 -2.54,5.67 -5.669,5.67 -3.129,0 -5.669,-2.541 -5.669,-5.67 0,-3.129 2.54,-5.669 5.669,-5.669 z"
   style="fill:#808080"
   id="path8196" />
    <path
   d="m 192.756,115.654 c 0,7.092 5.758,12.85 12.85,12.85 h 102.803 c 7.093,0 12.851,-5.758 12.851,-12.85 V 12.85 C 321.26,5.758 315.502,0 308.409,0 H 205.606 c -7.092,0 -12.85,5.758 -12.85,12.85 z m 115.275,-6.048 c 3.129,0 5.67,2.541 5.67,5.67 0,3.129 -2.541,5.669 -5.67,5.669 -3.128,0 -5.669,-2.54 -5.669,-5.669 0,-3.129 2.541,-5.67 5.669,-5.67 z m -102.047,0 c 3.129,0 5.67,2.541 5.67,5.67 0,3.129 -2.541,5.669 -5.67,5.669 -3.129,0 -5.669,-2.54 -5.669,-5.669 0,-3.129 2.54,-5.67 5.669,-5.67 z m 12.362,-95.433 v 100.158 h 77.48 V 14.173 Z M 205.984,7.559 c 3.129,0 5.67,2.54 5.67,5.669 0,3.129 -2.541,5.67 -5.67,5.67 -3.129,0 -5.669,-2.541 -5.669,-5.67 0,-3.129 2.54,-5.669 5.669,-5.669 z m 102.047,0 c 3.129,0 5.67,2.54 5.67,5.669 0,3.129 -2.541,5.67 -5.67,5.67 -3.128,0 -5.669,-2.541 -5.669,-5.67 0,-3.129 2.541,-5.669 5.669,-5.669 z"
   style="fill:#808080"
   id="path8198" />
    <path
   d="m 332.598,115.654 c 0,7.092 5.758,12.85 12.851,12.85 h 102.803 c 7.092,0 12.85,-5.758 12.85,-12.85 V 12.85 C 461.102,5.758 455.344,0 448.252,0 H 345.449 c -7.093,0 -12.851,5.758 -12.851,12.85 z m 13.229,-6.048 c 3.129,0 5.669,2.541 5.669,5.67 0,3.129 -2.54,5.669 -5.669,5.669 -3.129,0 -5.67,-2.54 -5.67,-5.669 0,-3.129 2.541,-5.67 5.67,-5.67 z m 102.047,0 c 3.129,0 5.669,2.541 5.669,5.67 0,3.129 -2.54,5.669 -5.669,5.669 -3.129,0 -5.669,-2.54 -5.669,-5.669 0,-3.129 2.54,-5.67 5.669,-5.67 z m -82.434,-2.149 v 4.913 h 29.48 v -4.913 h 45.128 v -86.41 h -78.36 c -1.055,0 -2.1,0.208 -3.075,0.611 -0.975,0.404 -1.861,0.996 -2.608,1.742 -0.746,0.746 -1.338,1.632 -1.741,2.607 -0.404,0.975 -0.612,2.02 -0.611,3.076 v 78.374 z M 345.827,7.559 c 3.129,0 5.669,2.54 5.669,5.669 0,3.129 -2.54,5.67 -5.669,5.67 -3.129,0 -5.67,-2.541 -5.67,-5.67 0,-3.129 2.541,-5.669 5.67,-5.669 z m 102.047,0 c 3.129,0 5.669,2.54 5.669,5.669 0,3.129 -2.54,5.67 -5.669,5.67 -3.129,0 -5.669,-2.541 -5.669,-5.67 0,-3.129 2.54,-5.669 5.669,-5.669 z"
   style="fill:#808080"
   id="path8200" />
    <path
   d="m 192.756,255.496 c 0,7.092 5.758,12.85 12.85,12.85 h 102.803 c 7.093,0 12.851,-5.758 12.851,-12.85 V 152.693 c 0,-7.092 -5.758,-12.85 -12.851,-12.85 H 205.606 c -7.092,0 -12.85,5.758 -12.85,12.85 z m 115.275,-6.047 c 3.129,0 5.67,2.54 5.67,5.669 0,3.129 -2.541,5.669 -5.67,5.669 -3.128,0 -5.669,-2.54 -5.669,-5.669 0,-3.129 2.541,-5.669 5.669,-5.669 z m -102.047,0 c 3.129,0 5.67,2.54 5.67,5.669 0,3.129 -2.541,5.669 -5.67,5.669 -3.129,0 -5.669,-2.54 -5.669,-5.669 0,-3.129 2.54,-5.669 5.669,-5.669 z m 12.362,-95.433 v 100.157 h 77.48 V 154.016 Z m -12.362,-6.614 c 3.129,0 5.67,2.54 5.67,5.669 0,3.129 -2.541,5.669 -5.67,5.669 -3.129,0 -5.669,-2.54 -5.669,-5.669 0,-3.129 2.54,-5.669 5.669,-5.669 z m 102.047,0 c 3.129,0 5.67,2.54 5.67,5.669 0,3.129 -2.541,5.669 -5.67,5.669 -3.128,0 -5.669,-2.54 -5.669,-5.669 0,-3.129 2.541,-5.669 5.669,-5.669 z"
   style="fill:#808080"
   id="path8202" />
    <path
   d="m 332.598,255.496 c 0,7.092 5.758,12.85 12.851,12.85 h 102.803 c 7.092,0 12.85,-5.758 12.85,-12.85 V 152.693 c 0,-7.092 -5.758,-12.85 -12.85,-12.85 H 345.449 c -7.093,0 -12.851,5.758 -12.851,12.85 z m 13.229,-6.047 c 3.129,0 5.669,2.54 5.669,5.669 0,3.129 -2.54,5.669 -5.669,5.669 -3.129,0 -5.67,-2.54 -5.67,-5.669 0,-3.129 2.541,-5.669 5.67,-5.669 z m 102.047,0 c 3.129,0 5.669,2.54 5.669,5.669 0,3.129 -2.54,5.669 -5.669,5.669 -3.129,0 -5.669,-2.54 -5.669,-5.669 0,-3.129 2.54,-5.669 5.669,-5.669 z m -82.434,-2.15 v 4.913 h 29.48 v -4.913 h 45.128 V 160.89 h -78.36 c -1.055,-10e-4 -2.1,0.207 -3.075,0.611 -0.975,0.403 -1.861,0.995 -2.608,1.742 -0.746,0.746 -1.338,1.632 -1.741,2.607 -0.404,0.975 -0.612,2.02 -0.611,3.075 v 78.374 z m -19.613,-99.897 c 3.129,0 5.669,2.54 5.669,5.669 0,3.129 -2.54,5.669 -5.669,5.669 -3.129,0 -5.67,-2.54 -5.67,-5.669 0,-3.129 2.541,-5.669 5.67,-5.669 z m 102.047,0 c 3.129,0 5.669,2.54 5.669,5.669 0,3.129 -2.54,5.669 -5.669,5.669 -3.129,0 -5.669,-2.54 -5.669,-5.669 0,-3.129 2.54,-5.669 5.669,-5.669 z"
   style="fill:#808080"
   id="path8204" />
    <path
   d="m 168.567,268.346 c 7.092,0 12.85,-5.758 12.85,-12.85 V 152.693 c 0,-7.092 -5.758,-12.85 -12.85,-12.85 H 12.85 C 5.758,139.843 0,145.601 0,152.693 v 102.803 c 0,7.092 5.758,12.85 12.85,12.85 z m -7.937,-64.252 c 0,-4.171 3.387,-7.559 7.559,-7.559 4.172,0 7.559,3.388 7.559,7.559 0,4.172 -3.387,7.56 -7.559,7.56 -4.172,0 -7.559,-3.388 -7.559,-7.56 z m -24.567,-51.023 c 0,-3.129 2.54,-5.669 5.669,-5.669 3.129,0 5.67,2.54 5.67,5.669 0,3.129 -2.541,5.669 -5.67,5.669 -3.129,0 -5.669,-2.54 -5.669,-5.669 z m 0,102.047 c 0,-3.129 2.54,-5.669 5.669,-5.669 3.129,0 5.67,2.54 5.67,5.669 0,3.129 -2.541,5.669 -5.67,5.669 -3.129,0 -5.669,-2.54 -5.669,-5.669 z m -102.047,0 c 0,-3.129 2.54,-5.669 5.669,-5.669 3.129,0 5.669,2.54 5.669,5.669 0,3.129 -2.54,5.669 -5.669,5.669 -3.129,0 -5.669,-2.54 -5.669,-5.669 z m 0,-102.047 c 0,-3.129 2.54,-5.669 5.669,-5.669 3.129,0 5.669,2.54 5.669,5.669 0,3.129 -2.54,5.669 -5.669,5.669 -3.129,0 -5.669,-2.54 -5.669,-5.669 z M 5.669,204.094 c 0,-4.171 3.387,-7.559 7.559,-7.559 4.172,0 7.559,3.388 7.559,7.559 0,4.172 -3.387,7.56 -7.559,7.56 -4.172,0 -7.559,-3.388 -7.559,-7.56 z"
   style="fill:#808080"
   id="path8206" />
</svg>
